<svg width="1024" height="1024" viewBox="0 0 1024 1024" fill="none" xmlns="http://www.w3.org/2000/svg">
<rect width="1024" height="1024" rx="224" fill="url(#paint0_linear_127_434)"/>
<mask id="mask0_127_434" style="mask-type:alpha" maskUnits="userSpaceOnUse" x="0" y="0" width="1024" height="1024">
<path fill-rule="evenodd" clip-rule="evenodd" d="M1024 1024H0V-1.52588e-05L1024 -1.52588e-05V1024ZM660 472V552L988 576V448L660 472Z" fill="#D9D9D9"/>
</mask>
<g mask="url(#mask0_127_434)">
<g clip-path="url(#paint1_angular_127_434_clip_path)" data-figma-skip-parse="true"><g transform="matrix(0.108281 -0.186899 0.186899 0.108281 512 512)"><foreignObject x="-1366.57" y="-1366.57" width="2733.15" height="2733.15"><div xmlns="http://www.w3.org/1999/xhtml" style="background:conic-gradient(from 90deg,rgba(255, 255, 255, 1) 0deg,rgba(0, 0, 255, 1) 90deg,rgba(0, 0, 0, 1) 180deg,rgba(0, 0, 255, 1) 270deg,rgba(255, 255, 255, 1) 360deg);height:100%;width:100%;opacity:1"></div></foreignObject></g></g><path fill-rule="evenodd" clip-rule="evenodd" d="M512 296C631.294 296 728 392.706 728 512C728 631.293 631.294 728 512 728C392.707 728 296 631.293 296 512C296 392.706 392.706 296 512 296ZM512 328C410.38 328 328 410.38 328 512C328 613.62 410.38 696 512 696C613.62 696 696 613.62 696 512C696 410.38 613.62 328 512 328Z" data-figma-gradient-fill="{&#34;type&#34;:&#34;GRADIENT_ANGULAR&#34;,&#34;stops&#34;:[{&#34;color&#34;:{&#34;r&#34;:1.0,&#34;g&#34;:1.0,&#34;b&#34;:1.0,&#34;a&#34;:1.0},&#34;position&#34;:0.0},{&#34;color&#34;:{&#34;r&#34;:0.0,&#34;g&#34;:0.0,&#34;b&#34;:1.0,&#34;a&#34;:1.0},&#34;position&#34;:0.250},{&#34;color&#34;:{&#34;r&#34;:0.0,&#34;g&#34;:0.0,&#34;b&#34;:0.0,&#34;a&#34;:1.0},&#34;position&#34;:0.50},{&#34;color&#34;:{&#34;r&#34;:0.0,&#34;g&#34;:0.0,&#34;b&#34;:1.0,&#34;a&#34;:1.0},&#34;position&#34;:0.750}],&#34;stopsVar&#34;:[{&#34;color&#34;:{&#34;r&#34;:1.0,&#34;g&#34;:1.0,&#34;b&#34;:1.0,&#34;a&#34;:1.0},&#34;position&#34;:0.0},{&#34;color&#34;:{&#34;r&#34;:0.0,&#34;g&#34;:0.0,&#34;b&#34;:1.0,&#34;a&#34;:1.0},&#34;position&#34;:0.250},{&#34;color&#34;:{&#34;r&#34;:0.0,&#34;g&#34;:0.0,&#34;b&#34;:0.0,&#34;a&#34;:1.0},&#34;position&#34;:0.50},{&#34;color&#34;:{&#34;r&#34;:0.0,&#34;g&#34;:0.0,&#34;b&#34;:1.0,&#34;a&#34;:1.0},&#34;position&#34;:0.750}],&#34;transform&#34;:{&#34;m00&#34;:216.56195068359375,&#34;m01&#34;:373.79797363281250,&#34;m02&#34;:216.82000732421875,&#34;m10&#34;:-373.79797363281250,&#34;m11&#34;:216.56195068359375,&#34;m12&#34;:590.61798095703125},&#34;opacity&#34;:1.0,&#34;blendMode&#34;:&#34;NORMAL&#34;,&#34;visible&#34;:true}"/>
<g clip-path="url(#paint2_angular_127_434_clip_path)" data-figma-skip-parse="true"><g transform="matrix(0.11191 -0.194042 0.194042 0.11191 512 512)"><foreignObject x="-1365.86" y="-1365.86" width="2731.71" height="2731.71"><div xmlns="http://www.w3.org/1999/xhtml" style="background:conic-gradient(from 90deg,rgba(255, 255, 255, 1) 0deg,rgba(0, 0, 255, 1) 90deg,rgba(0, 0, 0, 1) 180deg,rgba(0, 0, 255, 1) 270deg,rgba(255, 255, 255, 1) 360deg);height:100%;width:100%;opacity:0.75"></div></foreignObject></g></g><path fill-rule="evenodd" clip-rule="evenodd" d="M512 288C635.712 288 736 388.288 736 512C736 635.712 635.712 736 512 736C388.288 736 288 635.712 288 512C288 388.288 388.288 288 512 288ZM512 296C392.707 296 296 392.706 296 512C296 631.293 392.706 728 512 728C631.294 728 728 631.293 728 512C728 392.706 631.294 296 512 296Z" data-figma-gradient-fill="{&#34;type&#34;:&#34;GRADIENT_ANGULAR&#34;,&#34;stops&#34;:[{&#34;color&#34;:{&#34;r&#34;:1.0,&#34;g&#34;:1.0,&#34;b&#34;:1.0,&#34;a&#34;:1.0},&#34;position&#34;:0.0},{&#34;color&#34;:{&#34;r&#34;:0.0,&#34;g&#34;:0.0,&#34;b&#34;:1.0,&#34;a&#34;:1.0},&#34;position&#34;:0.250},{&#34;color&#34;:{&#34;r&#34;:0.0,&#34;g&#34;:0.0,&#34;b&#34;:0.0,&#34;a&#34;:1.0},&#34;position&#34;:0.50},{&#34;color&#34;:{&#34;r&#34;:0.0,&#34;g&#34;:0.0,&#34;b&#34;:1.0,&#34;a&#34;:1.0},&#34;position&#34;:0.750}],&#34;stopsVar&#34;:[{&#34;color&#34;:{&#34;r&#34;:1.0,&#34;g&#34;:1.0,&#34;b&#34;:1.0,&#34;a&#34;:1.0},&#34;position&#34;:0.0},{&#34;color&#34;:{&#34;r&#34;:0.0,&#34;g&#34;:0.0,&#34;b&#34;:1.0,&#34;a&#34;:1.0},&#34;position&#34;:0.250},{&#34;color&#34;:{&#34;r&#34;:0.0,&#34;g&#34;:0.0,&#34;b&#34;:0.0,&#34;a&#34;:1.0},&#34;position&#34;:0.50},{&#34;color&#34;:{&#34;r&#34;:0.0,&#34;g&#34;:0.0,&#34;b&#34;:1.0,&#34;a&#34;:1.0},&#34;position&#34;:0.750}],&#34;transform&#34;:{&#34;m00&#34;:223.81954956054688,&#34;m01&#34;:388.083496093750,&#34;m02&#34;:206.04844665527344,&#34;m10&#34;:-388.083496093750,&#34;m11&#34;:223.81954956054688,&#34;m12&#34;:594.13195800781250},&#34;opacity&#34;:0.750,&#34;blendMode&#34;:&#34;NORMAL&#34;,&#34;visible&#34;:true}"/>
<g clip-path="url(#paint3_angular_127_434_clip_path)" data-figma-skip-parse="true"><g transform="matrix(0.133691 0.227646 -0.227646 0.133691 512 512)"><foreignObject x="-1368.7" y="-1368.7" width="2737.4" height="2737.4"><div xmlns="http://www.w3.org/1999/xhtml" style="background:conic-gradient(from 90deg,rgba(0, 0, 255, 1) 0deg,rgba(255, 255, 255, 1) 180deg,rgba(0, 0, 255, 1) 360deg);height:100%;width:100%;opacity:1"></div></foreignObject></g></g><path fill-rule="evenodd" clip-rule="evenodd" d="M512 248C657.803 248 776 366.197 776 512C776 657.803 657.803 776 512 776C366.197 776 248 657.803 248 512C248 366.197 366.197 248 512 248ZM512 288C388.288 288 288 388.288 288 512C288 635.712 388.288 736 512 736C635.712 736 736 635.712 736 512C736 388.288 635.712 288 512 288Z" data-figma-gradient-fill="{&#34;type&#34;:&#34;GRADIENT_ANGULAR&#34;,&#34;stops&#34;:[{&#34;color&#34;:{&#34;r&#34;:0.0,&#34;g&#34;:0.0,&#34;b&#34;:1.0,&#34;a&#34;:1.0},&#34;position&#34;:0.0},{&#34;color&#34;:{&#34;r&#34;:1.0,&#34;g&#34;:1.0,&#34;b&#34;:1.0,&#34;a&#34;:1.0},&#34;position&#34;:0.50}],&#34;stopsVar&#34;:[{&#34;color&#34;:{&#34;r&#34;:0.0,&#34;g&#34;:0.0,&#34;b&#34;:1.0,&#34;a&#34;:1.0},&#34;position&#34;:0.0},{&#34;color&#34;:{&#34;r&#34;:1.0,&#34;g&#34;:1.0,&#34;b&#34;:1.0,&#34;a&#34;:1.0},&#34;position&#34;:0.50}],&#34;transform&#34;:{&#34;m00&#34;:267.38180541992188,&#34;m01&#34;:-455.29217529296875,&#34;m02&#34;:605.95520019531250,&#34;m10&#34;:455.29217529296875,&#34;m11&#34;:267.38180541992188,&#34;m12&#34;:150.66299438476562},&#34;opacity&#34;:1.0,&#34;blendMode&#34;:&#34;NORMAL&#34;,&#34;visible&#34;:true}"/>
<g clip-path="url(#paint4_angular_127_434_clip_path)" data-figma-skip-parse="true"><g transform="matrix(0.134552 0.236389 -0.236389 0.134552 512 512)"><foreignObject x="-1363.75" y="-1363.75" width="2727.51" height="2727.51"><div xmlns="http://www.w3.org/1999/xhtml" style="background:conic-gradient(from 90deg,rgba(0, 0, 255, 1) 0deg,rgba(255, 255, 255, 1) 180deg,rgba(0, 0, 255, 1) 360deg);height:100%;width:100%;opacity:0.75"></div></foreignObject></g></g><path fill-rule="evenodd" clip-rule="evenodd" d="M512 240C662.221 240 784 361.779 784 512C784 662.221 662.221 784 512 784C361.779 784 240 662.221 240 512C240 361.779 361.779 240 512 240ZM512 248C366.197 248 248 366.197 248 512C248 657.803 366.197 776 512 776C657.803 776 776 657.803 776 512C776 366.197 657.803 248 512 248Z" data-figma-gradient-fill="{&#34;type&#34;:&#34;GRADIENT_ANGULAR&#34;,&#34;stops&#34;:[{&#34;color&#34;:{&#34;r&#34;:0.0,&#34;g&#34;:0.0,&#34;b&#34;:1.0,&#34;a&#34;:1.0},&#34;position&#34;:0.0},{&#34;color&#34;:{&#34;r&#34;:1.0,&#34;g&#34;:1.0,&#34;b&#34;:1.0,&#34;a&#34;:1.0},&#34;position&#34;:0.50}],&#34;stopsVar&#34;:[{&#34;color&#34;:{&#34;r&#34;:0.0,&#34;g&#34;:0.0,&#34;b&#34;:1.0,&#34;a&#34;:1.0},&#34;position&#34;:0.0},{&#34;color&#34;:{&#34;r&#34;:1.0,&#34;g&#34;:1.0,&#34;b&#34;:1.0,&#34;a&#34;:1.0},&#34;position&#34;:0.50}],&#34;transform&#34;:{&#34;m00&#34;:269.10433959960938,&#34;m01&#34;:-472.777832031250,&#34;m02&#34;:613.83673095703125,&#34;m10&#34;:472.777832031250,&#34;m11&#34;:269.10433959960938,&#34;m12&#34;:141.05891418457031},&#34;opacity&#34;:0.750,&#34;blendMode&#34;:&#34;NORMAL&#34;,&#34;visible&#34;:true}"/>
<g clip-path="url(#paint5_angular_127_434_clip_path)" data-figma-skip-parse="true"><g transform="matrix(-0.159695 0.277304 -0.277304 -0.159695 512 512)"><foreignObject x="-1365.62" y="-1365.62" width="2731.25" height="2731.25"><div xmlns="http://www.w3.org/1999/xhtml" style="background:conic-gradient(from 90deg,rgba(255, 0, 0, 1) 0deg,rgba(255, 153, 0, 1) 36deg,rgba(204, 255, 0, 1) 72deg,rgba(51, 255, 0, 1) 108deg,rgba(0, 255, 102, 1) 144deg,rgba(0, 255, 255, 1) 180deg,rgba(0, 102, 255, 1) 216deg,rgba(51, 0, 255, 1) 252deg,rgba(204, 0, 255, 1) 288deg,rgba(255, 0, 153, 1) 324deg,rgba(255, 0, 0, 1) 360deg);height:100%;width:100%;opacity:1"></div></foreignObject></g></g><path fill-rule="evenodd" clip-rule="evenodd" d="M512 192C688.731 192 832 335.269 832 512C832 688.731 688.731 832 512 832C335.269 832 192 688.731 192 512C192 335.269 335.269 192 512 192ZM512 240C361.779 240 240 361.779 240 512C240 662.221 361.779 784 512 784C662.221 784 784 662.221 784 512C784 361.779 662.221 240 512 240Z" data-figma-gradient-fill="{&#34;type&#34;:&#34;GRADIENT_ANGULAR&#34;,&#34;stops&#34;:[{&#34;color&#34;:{&#34;r&#34;:1.0,&#34;g&#34;:0.0,&#34;b&#34;:0.0,&#34;a&#34;:1.0},&#34;position&#34;:0.0},{&#34;color&#34;:{&#34;r&#34;:1.0,&#34;g&#34;:0.60000002384185791,&#34;b&#34;:0.0,&#34;a&#34;:1.0},&#34;position&#34;:0.10000000149011612},{&#34;color&#34;:{&#34;r&#34;:0.80000001192092896,&#34;g&#34;:1.0,&#34;b&#34;:0.0,&#34;a&#34;:1.0},&#34;position&#34;:0.20000000298023224},{&#34;color&#34;:{&#34;r&#34;:0.20000000298023224,&#34;g&#34;:1.0,&#34;b&#34;:0.0,&#34;a&#34;:1.0},&#34;position&#34;:0.30000001192092896},{&#34;color&#34;:{&#34;r&#34;:0.0,&#34;g&#34;:1.0,&#34;b&#34;:0.40000000596046448,&#34;a&#34;:1.0},&#34;position&#34;:0.40000000596046448},{&#34;color&#34;:{&#34;r&#34;:0.0,&#34;g&#34;:1.0,&#34;b&#34;:1.0,&#34;a&#34;:1.0},&#34;position&#34;:0.50},{&#34;color&#34;:{&#34;r&#34;:0.0,&#34;g&#34;:0.40000000596046448,&#34;b&#34;:1.0,&#34;a&#34;:1.0},&#34;position&#34;:0.60000002384185791},{&#34;color&#34;:{&#34;r&#34;:0.20000000298023224,&#34;g&#34;:0.0,&#34;b&#34;:1.0,&#34;a&#34;:1.0},&#34;position&#34;:0.70000004768371582},{&#34;color&#34;:{&#34;r&#34;:0.80000001192092896,&#34;g&#34;:0.0,&#34;b&#34;:1.0,&#34;a&#34;:1.0},&#34;position&#34;:0.80000001192092896},{&#34;color&#34;:{&#34;r&#34;:1.0,&#34;g&#34;:0.0,&#34;b&#34;:0.60000002384185791,&#34;a&#34;:1.0},&#34;position&#34;:0.89999997615814209},{&#34;color&#34;:{&#34;r&#34;:1.0,&#34;g&#34;:0.0,&#34;b&#34;:0.0,&#34;a&#34;:1.0},&#34;position&#34;:1.0}],&#34;stopsVar&#34;:[{&#34;color&#34;:{&#34;r&#34;:1.0,&#34;g&#34;:0.0,&#34;b&#34;:0.0,&#34;a&#34;:1.0},&#34;position&#34;:0.0},{&#34;color&#34;:{&#34;r&#34;:1.0,&#34;g&#34;:0.60000002384185791,&#34;b&#34;:0.0,&#34;a&#34;:1.0},&#34;position&#34;:0.10000000149011612},{&#34;color&#34;:{&#34;r&#34;:0.80000001192092896,&#34;g&#34;:1.0,&#34;b&#34;:0.0,&#34;a&#34;:1.0},&#34;position&#34;:0.20000000298023224},{&#34;color&#34;:{&#34;r&#34;:0.20000000298023224,&#34;g&#34;:1.0,&#34;b&#34;:0.0,&#34;a&#34;:1.0},&#34;position&#34;:0.30000001192092896},{&#34;color&#34;:{&#34;r&#34;:0.0,&#34;g&#34;:1.0,&#34;b&#34;:0.40000000596046448,&#34;a&#34;:1.0},&#34;position&#34;:0.40000000596046448},{&#34;color&#34;:{&#34;r&#34;:0.0,&#34;g&#34;:1.0,&#34;b&#34;:1.0,&#34;a&#34;:1.0},&#34;position&#34;:0.50},{&#34;color&#34;:{&#34;r&#34;:0.0,&#34;g&#34;:0.40000000596046448,&#34;b&#34;:1.0,&#34;a&#34;:1.0},&#34;position&#34;:0.60000002384185791},{&#34;color&#34;:{&#34;r&#34;:0.20000000298023224,&#34;g&#34;:0.0,&#34;b&#34;:1.0,&#34;a&#34;:1.0},&#34;position&#34;:0.70000004768371582},{&#34;color&#34;:{&#34;r&#34;:0.80000001192092896,&#34;g&#34;:0.0,&#34;b&#34;:1.0,&#34;a&#34;:1.0},&#34;position&#34;:0.80000001192092896},{&#34;color&#34;:{&#34;r&#34;:1.0,&#34;g&#34;:0.0,&#34;b&#34;:0.60000002384185791,&#34;a&#34;:1.0},&#34;position&#34;:0.89999997615814209},{&#34;color&#34;:{&#34;r&#34;:1.0,&#34;g&#34;:0.0,&#34;b&#34;:0.0,&#34;a&#34;:1.0},&#34;position&#34;:1.0}],&#34;transform&#34;:{&#34;m00&#34;:-319.39065551757812,&#34;m01&#34;:-554.60760498046875,&#34;m02&#34;:948.99908447265625,&#34;m10&#34;:554.60760498046875,&#34;m11&#34;:-319.39065551757812,&#34;m12&#34;:394.39144897460938},&#34;opacity&#34;:1.0,&#34;blendMode&#34;:&#34;NORMAL&#34;,&#34;visible&#34;:true}"/>
<g clip-path="url(#paint6_angular_127_434_clip_path)" data-figma-skip-parse="true"><g transform="matrix(-0.163688 0.284236 -0.284236 -0.163688 512 512)"><foreignObject x="-1365.62" y="-1365.62" width="2731.25" height="2731.25"><div xmlns="http://www.w3.org/1999/xhtml" style="background:conic-gradient(from 90deg,rgba(255, 0, 0, 1) 0deg,rgba(255, 153, 0, 1) 36deg,rgba(204, 255, 0, 1) 72deg,rgba(51, 255, 0, 1) 108deg,rgba(0, 255, 102, 1) 144deg,rgba(0, 255, 255, 1) 180deg,rgba(0, 102, 255, 1) 216deg,rgba(51, 0, 255, 1) 252deg,rgba(204, 0, 255, 1) 288deg,rgba(255, 0, 153, 1) 324deg,rgba(255, 0, 0, 1) 360deg);height:100%;width:100%;opacity:0.5"></div></foreignObject></g></g><path fill-rule="evenodd" clip-rule="evenodd" d="M512 184C693.149 184 840 330.851 840 512C840 693.149 693.149 840 512 840C330.851 840 184 693.149 184 512C184 330.851 330.851 184 512 184ZM512 192C335.269 192 192 335.269 192 512C192 688.731 335.269 832 512 832C688.731 832 832 688.731 832 512C832 335.269 688.731 192 512 192Z" data-figma-gradient-fill="{&#34;type&#34;:&#34;GRADIENT_ANGULAR&#34;,&#34;stops&#34;:[{&#34;color&#34;:{&#34;r&#34;:1.0,&#34;g&#34;:0.0,&#34;b&#34;:0.0,&#34;a&#34;:1.0},&#34;position&#34;:0.0},{&#34;color&#34;:{&#34;r&#34;:1.0,&#34;g&#34;:0.60000002384185791,&#34;b&#34;:0.0,&#34;a&#34;:1.0},&#34;position&#34;:0.10000000149011612},{&#34;color&#34;:{&#34;r&#34;:0.80000001192092896,&#34;g&#34;:1.0,&#34;b&#34;:0.0,&#34;a&#34;:1.0},&#34;position&#34;:0.20000000298023224},{&#34;color&#34;:{&#34;r&#34;:0.20000000298023224,&#34;g&#34;:1.0,&#34;b&#34;:0.0,&#34;a&#34;:1.0},&#34;position&#34;:0.30000001192092896},{&#34;color&#34;:{&#34;r&#34;:0.0,&#34;g&#34;:1.0,&#34;b&#34;:0.40000000596046448,&#34;a&#34;:1.0},&#34;position&#34;:0.40000000596046448},{&#34;color&#34;:{&#34;r&#34;:0.0,&#34;g&#34;:1.0,&#34;b&#34;:1.0,&#34;a&#34;:1.0},&#34;position&#34;:0.50},{&#34;color&#34;:{&#34;r&#34;:0.0,&#34;g&#34;:0.40000000596046448,&#34;b&#34;:1.0,&#34;a&#34;:1.0},&#34;position&#34;:0.60000002384185791},{&#34;color&#34;:{&#34;r&#34;:0.20000000298023224,&#34;g&#34;:0.0,&#34;b&#34;:1.0,&#34;a&#34;:1.0},&#34;position&#34;:0.70000004768371582},{&#34;color&#34;:{&#34;r&#34;:0.80000001192092896,&#34;g&#34;:0.0,&#34;b&#34;:1.0,&#34;a&#34;:1.0},&#34;position&#34;:0.80000001192092896},{&#34;color&#34;:{&#34;r&#34;:1.0,&#34;g&#34;:0.0,&#34;b&#34;:0.60000002384185791,&#34;a&#34;:1.0},&#34;position&#34;:0.89999997615814209},{&#34;color&#34;:{&#34;r&#34;:1.0,&#34;g&#34;:0.0,&#34;b&#34;:0.0,&#34;a&#34;:1.0},&#34;position&#34;:1.0}],&#34;stopsVar&#34;:[{&#34;color&#34;:{&#34;r&#34;:1.0,&#34;g&#34;:0.0,&#34;b&#34;:0.0,&#34;a&#34;:1.0},&#34;position&#34;:0.0},{&#34;color&#34;:{&#34;r&#34;:1.0,&#34;g&#34;:0.60000002384185791,&#34;b&#34;:0.0,&#34;a&#34;:1.0},&#34;position&#34;:0.10000000149011612},{&#34;color&#34;:{&#34;r&#34;:0.80000001192092896,&#34;g&#34;:1.0,&#34;b&#34;:0.0,&#34;a&#34;:1.0},&#34;position&#34;:0.20000000298023224},{&#34;color&#34;:{&#34;r&#34;:0.20000000298023224,&#34;g&#34;:1.0,&#34;b&#34;:0.0,&#34;a&#34;:1.0},&#34;position&#34;:0.30000001192092896},{&#34;color&#34;:{&#34;r&#34;:0.0,&#34;g&#34;:1.0,&#34;b&#34;:0.40000000596046448,&#34;a&#34;:1.0},&#34;position&#34;:0.40000000596046448},{&#34;color&#34;:{&#34;r&#34;:0.0,&#34;g&#34;:1.0,&#34;b&#34;:1.0,&#34;a&#34;:1.0},&#34;position&#34;:0.50},{&#34;color&#34;:{&#34;r&#34;:0.0,&#34;g&#34;:0.40000000596046448,&#34;b&#34;:1.0,&#34;a&#34;:1.0},&#34;position&#34;:0.60000002384185791},{&#34;color&#34;:{&#34;r&#34;:0.20000000298023224,&#34;g&#34;:0.0,&#34;b&#34;:1.0,&#34;a&#34;:1.0},&#34;position&#34;:0.70000004768371582},{&#34;color&#34;:{&#34;r&#34;:0.80000001192092896,&#34;g&#34;:0.0,&#34;b&#34;:1.0,&#34;a&#34;:1.0},&#34;position&#34;:0.80000001192092896},{&#34;color&#34;:{&#34;r&#34;:1.0,&#34;g&#34;:0.0,&#34;b&#34;:0.60000002384185791,&#34;a&#34;:1.0},&#34;position&#34;:0.89999997615814209},{&#34;color&#34;:{&#34;r&#34;:1.0,&#34;g&#34;:0.0,&#34;b&#34;:0.0,&#34;a&#34;:1.0},&#34;position&#34;:1.0}],&#34;transform&#34;:{&#34;m00&#34;:-327.37542724609375,&#34;m01&#34;:-568.47277832031250,&#34;m02&#34;:959.92401123046875,&#34;m10&#34;:568.47277832031250,&#34;m11&#34;:-327.37542724609375,&#34;m12&#34;:391.45123291015625},&#34;opacity&#34;:0.50,&#34;blendMode&#34;:&#34;NORMAL&#34;,&#34;visible&#34;:true}"/>
</g>
<path d="M512 576C512.552 576 513 576.448 513 577V639C513 639.552 512.552 640 512 640C511.448 640 511 639.552 511 639V577C511 576.448 511.448 576 512 576Z" fill="url(#paint7_radial_127_434)"/>
<path d="M512 544C512.552 544 513 544.448 513 545V573C513 573.552 512.552 574 512 574C511.448 574 511 573.552 511 573V545C511 544.448 511.448 544 512 544Z" fill="url(#paint8_radial_127_434)"/>
<path d="M512 520C512.552 520 513 520.448 513 521V541C513 541.552 512.552 542 512 542C511.448 542 511 541.552 511 541V521C511 520.448 511.448 520 512 520Z" fill="url(#paint9_radial_127_434)"/>
<path d="M503 511C503.552 511 504 511.448 504 512C504 512.552 503.552 513 503 513H483C482.448 513 482 512.552 482 512C482 511.448 482.448 511 483 511H503Z" fill="url(#paint10_radial_127_434)"/>
<path d="M541 511C541.552 511 542 511.448 542 512C542 512.552 541.552 513 541 513H521C520.448 513 520 512.552 520 512C520 511.448 520.448 511 521 511H541Z" fill="url(#paint11_radial_127_434)"/>
<path fill-rule="evenodd" clip-rule="evenodd" d="M512 480C529.673 480 544 494.327 544 512C544 529.673 529.673 544 512 544C494.327 544 480 529.673 480 512C480 494.327 494.327 480 512 480ZM512 482C512.552 482 513 482.448 513 483V503C513 503.552 512.552 504 512 504C511.448 504 511 503.552 511 503V483C511 482.448 511.448 482 512 482C495.431 482 482 495.431 482 512C482 528.569 495.431 542 512 542C528.569 542 542 528.569 542 512C542 495.431 528.569 482 512 482Z" fill="url(#paint12_radial_127_434)"/>
<path d="M479 511C479.552 511 480 511.448 480 512C480 512.552 479.552 513 479 513H451C450.448 513 450 512.552 450 512C450 511.448 450.448 511 451 511H479Z" fill="url(#paint13_radial_127_434)"/>
<path d="M573 511C573.552 511 574 511.448 574 512C574 512.552 573.552 513 573 513H545C544.448 513 544 512.552 544 512C544 511.448 544.448 511 545 511H573Z" fill="url(#paint14_radial_127_434)"/>
<path fill-rule="evenodd" clip-rule="evenodd" d="M512 448C547.346 448 576 476.654 576 512C576 547.346 547.346 576 512 576C476.654 576 448 547.346 448 512C448 476.654 476.654 448 512 448ZM512 450C512.552 450 513 450.448 513 451V479C513 479.552 512.552 480 512 480C511.448 480 511 479.552 511 479V451C511 450.448 511.448 450 512 450C477.758 450 450 477.758 450 512C450 546.242 477.758 574 512 574C546.242 574 574 546.242 574 512C574 477.758 546.242 450 512 450Z" fill="url(#paint15_radial_127_434)"/>
<path d="M447 511C447.552 511 448 511.448 448 512C448 512.552 447.552 513 447 513H385C384.448 513 384 512.552 384 512C384 511.448 384.448 511 385 511H447Z" fill="url(#paint16_radial_127_434)"/>
<path d="M639 511C639.552 511 640 511.448 640 512C640 512.552 639.552 513 639 513H577C576.448 513 576 512.552 576 512C576 511.448 576.448 511 577 511H639Z" fill="url(#paint17_radial_127_434)"/>
<path d="M512 384C512.552 384 513 384.448 513 385V447C513 447.552 512.552 448 512 448C511.448 448 511 447.552 511 447V385C511 384.448 511.448 384 512 384Z" fill="url(#paint18_radial_127_434)"/>
<path d="M504 512L512 504L840 480L880 512L840 544L512 520L504 512Z" fill="url(#paint19_linear_127_434)"/>
<g opacity="0.5" filter="url(#filter0_d_127_434)">
<path fill-rule="evenodd" clip-rule="evenodd" d="M880 512L840 544L512 520L504 512L512 504L840 480L880 512ZM513.775 507.88L509.656 512L513.775 516.119L838.727 539.896L873.597 512L838.727 484.104L513.775 507.88Z" fill="url(#paint20_linear_127_434)"/>
</g>
<path d="M839 496C839.552 496 840 496.448 840 497V527C840 527.552 839.552 528 839 528C838.448 528 838 527.552 838 527V513H812V519C812 519.552 811.552 520 811 520C810.448 520 810 519.552 810 519V513H784V525C784 525.552 783.552 526 783 526C782.448 526 782 525.552 782 525V513H760V518C760 518.552 759.552 519 759 519C758.448 519 758 518.552 758 518V513H736V523C736 523.552 735.552 524 735 524C734.448 524 734 523.552 734 523V513H716V517C716 517.552 715.552 518 715 518C714.448 518 714 517.552 714 517V513H696V522C696 522.552 695.552 523 695 523C694.448 523 694 522.552 694 522V513H636V516C636 516.552 635.552 517 635 517C634.448 517 634 516.552 634 516V513H576V517C576 517.552 575.552 518 575 518C574.448 518 574 517.552 574 517V513H560C560 513.552 559.552 514 559 514C558.448 514 558 513.552 558 513H544V515C544 515.552 543.552 516 543 516C542.448 516 542 515.552 542 515V509C542 508.448 542.448 508 543 508C543.552 508 544 508.448 544 509V511H558C558 510.448 558.448 510 559 510C559.552 510 560 510.448 560 511H574V507C574 506.448 574.448 506 575 506C575.552 506 576 506.448 576 507V511H634V508C634 507.448 634.448 507 635 507C635.552 507 636 507.448 636 508V511H694V502C694 501.448 694.448 501 695 501C695.552 501 696 501.448 696 502V511H714V507C714 506.448 714.448 506 715 506C715.552 506 716 506.448 716 507V511H734V501C734 500.448 734.448 500 735 500C735.552 500 736 500.448 736 501V511H758V506C758 505.448 758.448 505 759 505C759.552 505 760 505.448 760 506V511H782V499C782 498.448 782.448 498 783 498C783.552 498 784 498.448 784 499V511H810V505C810 504.448 810.448 504 811 504C811.552 504 812 504.448 812 505V511H838V497C838 496.448 838.448 496 839 496Z" fill="url(#paint21_linear_127_434)"/>
<defs>
<clipPath id="paint1_angular_127_434_clip_path"><path fill-rule="evenodd" clip-rule="evenodd" d="M512 296C631.294 296 728 392.706 728 512C728 631.293 631.294 728 512 728C392.707 728 296 631.293 296 512C296 392.706 392.706 296 512 296ZM512 328C410.38 328 328 410.38 328 512C328 613.62 410.38 696 512 696C613.62 696 696 613.62 696 512C696 410.38 613.62 328 512 328Z"/></clipPath><clipPath id="paint2_angular_127_434_clip_path"><path fill-rule="evenodd" clip-rule="evenodd" d="M512 288C635.712 288 736 388.288 736 512C736 635.712 635.712 736 512 736C388.288 736 288 635.712 288 512C288 388.288 388.288 288 512 288ZM512 296C392.707 296 296 392.706 296 512C296 631.293 392.706 728 512 728C631.294 728 728 631.293 728 512C728 392.706 631.294 296 512 296Z"/></clipPath><clipPath id="paint3_angular_127_434_clip_path"><path fill-rule="evenodd" clip-rule="evenodd" d="M512 248C657.803 248 776 366.197 776 512C776 657.803 657.803 776 512 776C366.197 776 248 657.803 248 512C248 366.197 366.197 248 512 248ZM512 288C388.288 288 288 388.288 288 512C288 635.712 388.288 736 512 736C635.712 736 736 635.712 736 512C736 388.288 635.712 288 512 288Z"/></clipPath><clipPath id="paint4_angular_127_434_clip_path"><path fill-rule="evenodd" clip-rule="evenodd" d="M512 240C662.221 240 784 361.779 784 512C784 662.221 662.221 784 512 784C361.779 784 240 662.221 240 512C240 361.779 361.779 240 512 240ZM512 248C366.197 248 248 366.197 248 512C248 657.803 366.197 776 512 776C657.803 776 776 657.803 776 512C776 366.197 657.803 248 512 248Z"/></clipPath><clipPath id="paint5_angular_127_434_clip_path"><path fill-rule="evenodd" clip-rule="evenodd" d="M512 192C688.731 192 832 335.269 832 512C832 688.731 688.731 832 512 832C335.269 832 192 688.731 192 512C192 335.269 335.269 192 512 192ZM512 240C361.779 240 240 361.779 240 512C240 662.221 361.779 784 512 784C662.221 784 784 662.221 784 512C784 361.779 662.221 240 512 240Z"/></clipPath><clipPath id="paint6_angular_127_434_clip_path"><path fill-rule="evenodd" clip-rule="evenodd" d="M512 184C693.149 184 840 330.851 840 512C840 693.149 693.149 840 512 840C330.851 840 184 693.149 184 512C184 330.851 330.851 184 512 184ZM512 192C335.269 192 192 335.269 192 512C192 688.731 335.269 832 512 832C688.731 832 832 688.731 832 512C832 335.269 688.731 192 512 192Z"/></clipPath><filter id="filter0_d_127_434" x="502" y="478" width="380" height="68" filterUnits="userSpaceOnUse" color-interpolation-filters="sRGB">
<feFlood flood-opacity="0" result="BackgroundImageFix"/>
<feColorMatrix in="SourceAlpha" type="matrix" values="0 0 0 0 0 0 0 0 0 0 0 0 0 0 0 0 0 0 127 0" result="hardAlpha"/>
<feOffset/>
<feGaussianBlur stdDeviation="1"/>
<feComposite in2="hardAlpha" operator="out"/>
<feColorMatrix type="matrix" values="0 0 0 0 0 0 0 0 0 0 0 0 0 0 0 0 0 0 0.5 0"/>
<feBlend mode="normal" in2="BackgroundImageFix" result="effect1_dropShadow_127_434"/>
<feBlend mode="normal" in="SourceGraphic" in2="effect1_dropShadow_127_434" result="shape"/>
</filter>
<linearGradient id="paint0_linear_127_434" x1="1024" y1="0" x2="0" y2="1024" gradientUnits="userSpaceOnUse">
<stop stop-color="#00004D"/>
<stop offset="1" stop-color="#06001A"/>
</linearGradient>
<radialGradient id="paint7_radial_127_434" cx="0" cy="0" r="1" gradientUnits="userSpaceOnUse" gradientTransform="translate(512 512) rotate(90) scale(128)">
<stop stop-color="#808080" stop-opacity="0.5"/>
<stop offset="1" stop-color="#808080" stop-opacity="0.75"/>
</radialGradient>
<radialGradient id="paint8_radial_127_434" cx="0" cy="0" r="1" gradientUnits="userSpaceOnUse" gradientTransform="translate(512 512) rotate(90) scale(128)">
<stop stop-color="#808080" stop-opacity="0.5"/>
<stop offset="1" stop-color="#808080" stop-opacity="0.75"/>
</radialGradient>
<radialGradient id="paint9_radial_127_434" cx="0" cy="0" r="1" gradientUnits="userSpaceOnUse" gradientTransform="translate(512 512) rotate(90) scale(128)">
<stop stop-color="#808080" stop-opacity="0.5"/>
<stop offset="1" stop-color="#808080" stop-opacity="0.75"/>
</radialGradient>
<radialGradient id="paint10_radial_127_434" cx="0" cy="0" r="1" gradientUnits="userSpaceOnUse" gradientTransform="translate(512 512) rotate(90) scale(128)">
<stop stop-color="#808080" stop-opacity="0.5"/>
<stop offset="1" stop-color="#808080" stop-opacity="0.75"/>
</radialGradient>
<radialGradient id="paint11_radial_127_434" cx="0" cy="0" r="1" gradientUnits="userSpaceOnUse" gradientTransform="translate(512 512) rotate(90) scale(128)">
<stop stop-color="#808080" stop-opacity="0.5"/>
<stop offset="1" stop-color="#808080" stop-opacity="0.75"/>
</radialGradient>
<radialGradient id="paint12_radial_127_434" cx="0" cy="0" r="1" gradientUnits="userSpaceOnUse" gradientTransform="translate(512 512) rotate(90) scale(128)">
<stop stop-color="#808080" stop-opacity="0.5"/>
<stop offset="1" stop-color="#808080" stop-opacity="0.75"/>
</radialGradient>
<radialGradient id="paint13_radial_127_434" cx="0" cy="0" r="1" gradientUnits="userSpaceOnUse" gradientTransform="translate(512 512) rotate(90) scale(128)">
<stop stop-color="#808080" stop-opacity="0.5"/>
<stop offset="1" stop-color="#808080" stop-opacity="0.75"/>
</radialGradient>
<radialGradient id="paint14_radial_127_434" cx="0" cy="0" r="1" gradientUnits="userSpaceOnUse" gradientTransform="translate(512 512) rotate(90) scale(128)">
<stop stop-color="#808080" stop-opacity="0.5"/>
<stop offset="1" stop-color="#808080" stop-opacity="0.75"/>
</radialGradient>
<radialGradient id="paint15_radial_127_434" cx="0" cy="0" r="1" gradientUnits="userSpaceOnUse" gradientTransform="translate(512 512) rotate(90) scale(128)">
<stop stop-color="#808080" stop-opacity="0.5"/>
<stop offset="1" stop-color="#808080" stop-opacity="0.75"/>
</radialGradient>
<radialGradient id="paint16_radial_127_434" cx="0" cy="0" r="1" gradientUnits="userSpaceOnUse" gradientTransform="translate(512 512) rotate(90) scale(128)">
<stop stop-color="#808080" stop-opacity="0.5"/>
<stop offset="1" stop-color="#808080" stop-opacity="0.75"/>
</radialGradient>
<radialGradient id="paint17_radial_127_434" cx="0" cy="0" r="1" gradientUnits="userSpaceOnUse" gradientTransform="translate(512 512) rotate(90) scale(128)">
<stop stop-color="#808080" stop-opacity="0.5"/>
<stop offset="1" stop-color="#808080" stop-opacity="0.75"/>
</radialGradient>
<radialGradient id="paint18_radial_127_434" cx="0" cy="0" r="1" gradientUnits="userSpaceOnUse" gradientTransform="translate(512 512) rotate(90) scale(128)">
<stop stop-color="#808080" stop-opacity="0.5"/>
<stop offset="1" stop-color="#808080" stop-opacity="0.75"/>
</radialGradient>
<linearGradient id="paint19_linear_127_434" x1="523" y1="512" x2="907" y2="512" gradientUnits="userSpaceOnUse">
<stop stop-color="#000080"/>
<stop offset="1" stop-color="#8080FF"/>
</linearGradient>
<linearGradient id="paint20_linear_127_434" x1="504" y1="512" x2="880" y2="512" gradientUnits="userSpaceOnUse">
<stop stop-color="#9F9FDF"/>
<stop offset="1" stop-color="white"/>
</linearGradient>
<linearGradient id="paint21_linear_127_434" x1="542" y1="512" x2="840" y2="512" gradientUnits="userSpaceOnUse">
<stop stop-color="white" stop-opacity="0.25"/>
<stop offset="1" stop-color="white" stop-opacity="0.5"/>
</linearGradient>
</defs>
</svg>
